# xmcd
#
# Track frame offsets: 
#        150
#        20125
#        48473
#        70730
#        84792
#        107297
#        128455
#        144278
#        169274
#        191290
#        213769
#        230763
#        252585
#        269461
#        289457
#        313932
#        333747
#
# Disc length: 4798 seconds
#
# Revision: 0
# Processed by: cddbd v1.5.2PL0 Copyright (c) Steve Scherf et al.
# Submitted via: ExactAudioCopy v1.3
#
DISCID=f912bc11
DTITLE=Various Artist - Trail Of The Wolf - vol.10 - B-Side  CD1
DYEAR=2019
DGENRE=Blues
TTITLE0=Killing Floor - Iron Ewe
TTITLE1=Buddy Guy - Don't Tell Me About The Blues
TTITLE2=Eddie Turner - In The Morning
TTITLE3=Louie Jerger and Marc Turner - Road Thru Hell
TTITLE4=Jeff Fetterman - These Arms Of Mine
TTITLE5=Paul Black - Fly
TTITLE6=Danny Shirley - 11 Months and 29 Days
TTITLE7=Neal Black - It Don't Make Sense
TTITLE8=David Rotundo Band - Too Much Woman
TTITLE9=Nico Wayne Toussaint - New Man Out Of Me
TTITLE10=Gianfranco Segatto - All My Tears Are Dry
TTITLE11=Popa Chubby - I Can't See The Light Of Day
TTITLE12=Giles - Lost A Friend
TTITLE13=The Blues Notions - When U Die U Dead
TTITLE14=Eddie C. Campbell - Loneliness And Me
TTITLE15=Todd Wolfe Band - Light of Day
TTITLE16=Eric Gales - I want You (She's so Heavy)
EXTD=
EXTT0=
EXTT1=
EXTT2=
EXTT3=
EXTT4=
EXTT5=
EXTT6=
EXTT7=
EXTT8=
EXTT9=
EXTT10=
EXTT11=
EXTT12=
EXTT13=
EXTT14=
EXTT15=
EXTT16=
PLAYORDER=
